<?xml version="1.0" encoding="UTF-8"?>
<!DOCTYPE svg PUBLIC "-//W3C//DTD SVG 1.1//EN" "http://www.w3.org/Graphics/SVG/1.1/DTD/svg11.dtd">
<!-- Creator: CorelDRAW (Evaluation Version) -->
<svg xmlns="http://www.w3.org/2000/svg" xml:space="preserve" width="1446px" height="1446px" version="1.1" shape-rendering="geometricPrecision" text-rendering="geometricPrecision" image-rendering="optimizeQuality" fill-rule="evenodd" clip-rule="evenodd"
viewBox="0 0 12655 12655"
 xmlns:xlink="http://www.w3.org/1999/xlink"
 xmlns:xodm="http://www.corel.com/coreldraw/odm/2003">
 <g id="Layer_x0020_1">
  <metadata id="CorelCorpID_0Corel-Layer"/>
  <g id="_1590885598256">
   <path fill="#7C3AED" d="M1344 0l9967 0c739,0 1344,605 1344,1344l0 9967c0,739 -605,1344 -1344,1344l-9967 0c-739,0 -1344,-605 -1344,-1344l0 -9967c0,-739 605,-1344 1344,-1344z"/>
   <path fill="white" d="M8297 3305c289,288 1704,1668 1839,1854 -188,201 -606,534 -667,754 -73,262 138,587 467,582 278,-5 528,-346 749,-567 250,-250 531,-512 766,-772l-2824 -2802c-786,-583 -2161,-525 -2779,587 -263,473 -290,984 -185,1408 163,653 496,900 1011,1428 870,894 2017,1584 1680,2857 -326,1229 -1635,1525 -2509,1022 -389,-225 -2386,-2300 -2861,-2775 -502,-502 -1034,-853 -869,-1431 181,-632 917,-714 1285,-338l3330 3396c212,216 669,-178 581,-428 -135,-378 -3615,-3906 -4034,-4066 -996,-379 -2129,474 -2108,1667 11,571 216,915 733,1432l2838 2838c464,464 881,713 1432,828 838,176 2064,-52 2765,-1177 545,-874 506,-1988 -55,-2856 -308,-476 -1543,-1604 -2070,-2151 -903,-937 412,-2366 1485,-1290z"/>
  </g>
 </g>
</svg>
